<?xml version="1.0" encoding="UTF-8" standalone="no"?>
<svg
   xmlns:dc="http://purl.org/dc/elements/1.1/"
   xmlns:cc="http://creativecommons.org/ns#"
   xmlns:rdf="http://www.w3.org/1999/02/22-rdf-syntax-ns#"
   xmlns:svg="http://www.w3.org/2000/svg"
   xmlns="http://www.w3.org/2000/svg"
   xmlns:sodipodi="http://sodipodi.sourceforge.net/DTD/sodipodi-0.dtd"
   xmlns:inkscape="http://www.inkscape.org/namespaces/inkscape"
   viewBox="0 0 277.7114 196.75694"
   height="196.75694"
   width="277.7114"
   version="1.1"
   id="svg3390"
   inkscape:version="0.91 r13725"
   sodipodi:docname="ArchWiki.svg">
  <sodipodi:namedview
     pagecolor="#ffffff"
     bordercolor="#666666"
     borderopacity="1"
     objecttolerance="10"
     gridtolerance="10"
     guidetolerance="10"
     inkscape:pageopacity="0"
     inkscape:pageshadow="2"
     inkscape:window-width="1680"
     inkscape:window-height="991"
     id="namedview3649"
     showgrid="false"
     inkscape:zoom="1.9359012"
     inkscape:cx="22.534056"
     inkscape:cy="103.50792"
     inkscape:window-x="0"
     inkscape:window-y="0"
     inkscape:window-maximized="1"
     inkscape:current-layer="g3606"
     fit-margin-top="0"
     fit-margin-left="0"
     fit-margin-right="0"
     fit-margin-bottom="0" />
  <metadata
     id="metadata3396">
    <rdf:RDF>
      <cc:Work
         rdf:about="">
        <dc:format>image/svg+xml</dc:format>
        <dc:type
           rdf:resource="http://purl.org/dc/dcmitype/StillImage" />
        <dc:title></dc:title>
      </cc:Work>
    </rdf:RDF>
  </metadata>
  <defs
     id="defs3394" />
  <g
     id="g3606"
     transform="translate(-47.269934,-11.993064)">
    <g
       id="g3731">
      <path
         style="fill:#2f9dd4"
         d="m 56.768982,207.03854 c -9.479411,-4.28788 -12.554147,-16.69253 -6.052731,-24.41903 3.64053,-4.32652 11.349248,-6.93812 16.888348,-5.72154 2.42809,0.5333 3.645401,0.30563 3.645401,-0.6818 0,-1.04792 -2.656294,-1.35183 -9.0625,-1.03681 l -9.0625,0.44564 0.202908,-4.2335 c 0.230446,-4.80805 1.544554,-5.93902 8.209023,-7.06498 7.163486,-1.21026 14.498803,0.51732 18.902892,4.45193 l 3.935177,3.51567 0.441821,15.75654 c 0.517818,18.46675 0.07652,19.47945 -8.390565,19.25511 -3.190691,-0.0845 -8.051256,0.2132 -10.801256,0.66164 -3.230481,0.52679 -6.364659,0.19805 -8.856017,-0.92887 z m 12.538509,-9.0606 c 3.141559,-1.20553 4.740786,-5.08495 3.246885,-7.87634 C 69.586949,184.55691 57.5,186.44877 57.5,192.45794 c 0,4.34211 6.706546,7.47741 11.807491,5.52 z m 56.317509,8.90171 c -6.00296,-2.1138 -11.56256,-8.31806 -12.65053,-14.11743 -0.43629,-2.32565 -0.42784,-7.33765 0.0188,-11.13778 l 0.81206,-6.90934 -3.46516,0.86011 c -1.90584,0.47306 -4.73079,2.04146 -6.27767,3.48534 -2.547,2.37741 -2.8125,3.7824 -2.8125,14.88352 0,11.92623 -0.082,12.27888 -3.026126,13.01781 -7.381003,1.85252 -7.566814,1.44153 -7.95826,-17.60241 -0.197667,-9.61646 -0.06194,-18.68788 0.301618,-20.15873 0.853862,-3.45448 6.623605,-5.04563 9.146788,-2.52244 1.57806,1.57806 2.38865,1.58786 6.01477,0.0727 2.305,-0.96306 5.68554,-1.75105 7.51231,-1.75105 3.05251,0 3.25822,0.31589 2.54102,3.90189 -0.77053,3.85265 -0.7449,3.87615 2.03125,1.86238 5.2136,-3.78183 9.02888,-4.92956 16.56163,-4.98213 12.70572,-0.0888 19.30885,5.49656 13.11992,11.09746 -2.08722,1.8889 -3.03531,2.02547 -5.68382,0.81872 -4.28551,-1.95261 -8.71108,-1.82281 -12.9717,0.38044 -6.40692,3.31315 -7.08629,11.36665 -1.43555,17.01739 4.1434,4.1434 8.30897,4.64224 14.03577,1.68079 3.62029,-1.87213 3.96637,-1.83133 6.7646,0.79748 3.80338,3.57311 2.43079,6.39991 -4.44305,9.15027 -6.12925,2.45243 -11.48167,2.49817 -18.13617,0.15496 z m 30.20834,1.03701 C 155.375,207.45834 155,195.38437 155,181.08565 c 0,-24.42384 0.14637,-26.07603 2.41782,-27.29168 1.3298,-0.71168 3.5798,-1.29397 5,-1.29397 2.3243,0 2.58218,0.75331 2.58218,7.54305 l 0,7.54306 6.18154,-0.82001 c 8.56716,-1.13648 14.22476,0.19275 18.72892,4.40025 l 3.83954,3.58667 0,15.70452 c 0,14.24726 -0.22435,15.82457 -2.41783,16.99848 -1.3298,0.71169 -3.49642,1.29398 -4.81472,1.29398 -2.10399,0 -2.49501,-1.26029 -3.19969,-10.3125 -0.44152,-5.67188 -0.80615,-12.68334 -0.81027,-15.58103 -0.005,-3.92456 -0.62425,-5.5986 -2.42532,-6.5625 -4.03871,-2.16145 -8.77826,-1.46152 -12.01398,1.77422 -2.85134,2.85132 -3.06819,3.95782 -3.06819,15.65593 0,12.36197 -0.0575,12.60963 -3.20638,13.80682 -3.78328,1.4384 -4.83927,1.50673 -5.96028,0.38572 z m 108.46655,-0.78665 c -0.3419,-0.89099 -0.46488,-9.74334 -0.27327,-19.67189 0.31889,-16.52365 0.54734,-18.09008 2.69859,-18.503 1.29263,-0.24811 2.83089,0.30737 3.41836,1.23439 0.58748,0.92701 1.07677,9.09844 1.08729,18.1587 0.0155,13.32714 -0.356,16.84836 -1.94515,18.4375 -2.38762,2.38763 -4.15488,2.50966 -4.98582,0.3443 z m 16.25853,0.0223 c -0.33722,-0.87877 -0.46018,-12.82459 -0.27327,-26.54627 0.3171,-23.27834 0.49719,-24.97874 2.69006,-25.40023 3.7033,-0.71179 4.48517,2.01813 4.50565,15.73176 0.01,7.0648 0.54138,12.8125 1.1833,12.8125 0.64029,0 4.09964,-3.375 7.68745,-7.5 6.4369,-7.40065 10.52507,-9.32883 11.94327,-5.63305 0.43853,1.14282 -1.80281,4.77494 -5.77853,9.36418 l -6.49494,7.49721 7.61429,7.92949 c 4.18786,4.36122 7.6143,8.57414 7.6143,9.36203 0,0.78788 -1.37565,1.77778 -3.05699,2.19977 -2.58232,0.64812 -4.25433,-0.51273 -10.76832,-7.47619 -4.24123,-4.53391 -8.20934,-8.24346 -8.81802,-8.24346 -0.60867,0 -1.10667,3.05357 -1.10667,6.78571 0,4.50217 -0.66103,7.44674 -1.96429,8.75 -2.38006,2.38007 -4.15448,2.51073 -4.97729,0.36653 z m 37.49147,-0.0223 c -0.3419,-0.89099 -0.46488,-9.74334 -0.27327,-19.67189 0.31889,-16.52365 0.54734,-18.09008 2.69859,-18.503 1.29263,-0.24811 2.83089,0.30737 3.41836,1.23439 0.58748,0.92701 1.07677,9.09844 1.08729,18.1587 0.0155,13.32714 -0.356,16.84836 -1.94515,18.4375 -2.38762,2.38763 -4.15489,2.50966 -4.98582,0.3443 z m -104.7301,-4.31751 c -5.99163,-11.80699 -13.50363,-31.87866 -12.35918,-33.02311 2.97979,-2.97979 5.75348,-0.22837 9.97817,9.89811 2.36626,5.67187 4.80246,10.3125 5.41376,10.3125 0.61131,0 2.74505,-3.23609 4.74162,-7.1913 1.99659,-3.95521 4.72853,-8.54773 6.07099,-10.20559 l 2.44082,-3.01428 5.44859,10.22589 c 2.99673,5.62424 6.02575,10.03351 6.73116,9.79837 0.70543,-0.23514 2.9831,-4.3224 5.06152,-9.0828 4.84991,-11.10828 5.3192,-11.78029 8.22653,-11.78029 1.56153,0 2.42623,0.85773 2.42623,2.40667 0,3.89208 -13.9557,35.22949 -15.48113,34.76277 -0.76663,-0.23456 -3.73166,-4.87917 -6.58895,-10.32131 -2.8573,-5.44217 -5.6698,-10.04582 -6.25,-10.23034 -0.58021,-0.18453 -3.53995,4.43849 -6.5772,10.27335 -3.03725,5.83487 -5.97592,10.60886 -6.5304,10.60886 -0.55446,0 -1.79311,-1.54687 -2.75253,-3.4375 z m 50.81705,-41.1074 c -0.84478,-2.20146 0.7993,-5.64215 3.05534,-6.39416 2.31275,-0.77092 4.49871,4.52667 2.74151,6.64396 -1.98944,2.39712 -4.82808,2.2748 -5.79685,-0.2498 z m 53.75,0 c -0.84478,-2.20146 0.7993,-5.64215 3.05534,-6.39416 2.31274,-0.77092 4.49871,4.52667 2.74151,6.64396 -1.98944,2.39712 -4.82808,2.2748 -5.79685,-0.2498 z M 116.25,147.56956 c 0,-1.35294 25.93889,-49.0892 31.28209,-57.56956 1.94927,-3.09375 6.50683,-11.732164 10.12792,-19.196476 3.62109,-7.464311 7.30216,-13.847139 8.18017,-14.18406 0.878,-0.336921 3.60897,0.631281 6.06883,2.151561 6.22364,3.846418 6.94179,2.092725 1.44727,-3.534174 -2.53345,-2.594491 -4.60628,-5.401277 -4.60628,-6.2373 0,-0.836024 2.7755,-8.124807 6.16779,-16.197297 3.39227,-8.07249 6.7766,-16.285268 7.52071,-18.250617 1.94875,-5.1470465 3.76291,-3.016477 9.262,10.87737 5.53587,13.986813 20.36743,44.248864 34.40333,70.195993 5.57847,10.3125 10.14346,19.51411 10.14442,20.44801 10e-4,1.18722 -0.9383,1.46207 -3.12325,0.91368 -4.76705,-1.19645 -3.66067,0.56673 4.46965,7.12309 5.65545,4.56058 8.47981,8.08624 11.86868,14.81561 2.44592,4.85695 4.13563,9.14231 3.75492,9.52302 -0.38071,0.38071 -7.58869,-2.71371 -16.01772,-6.87649 -12.71834,-6.28111 -22.08978,-9.97103 -34.38803,-13.54002 -0.99879,-0.28985 -1.5625,-2.86608 -1.5625,-7.14079 0,-14.9126 -7.60971,-28.39111 -16.02909,-28.39111 -8.74419,0 -15.4134,10.82111 -15.79306,25.625 l -0.22441,8.75 -11.78921,3.9949 c -6.48408,2.1972 -18.00524,7.11907 -25.60258,10.9375 -14.47417,7.27472 -15.56165,7.6774 -15.56165,5.76216 z"
         id="path3610"
         inkscape:connector-curvature="0" />
      <path
         style="fill:#585858"
         d="M 57.543285,207.11695 C 46.04507,203.15669 43.844904,185.51476 54.126606,179.72047 55.638223,178.8686 60.53125,177.87987 65,177.5233 c 7.413054,-0.59149 7.877012,-0.78989 5.294872,-2.26421 -2.066921,-1.18015 -4.487863,-1.31462 -8.97737,-0.49862 -7.427088,1.34992 -9.240138,0.48368 -8.142348,-3.89027 1.346486,-5.36483 3.408758,-6.17651 14.422123,-5.67638 9.309508,0.42278 10.394703,0.75149 13.183207,3.99332 2.940702,3.41877 3.027448,4.08302 2.691575,20.61025 -0.343264,16.89088 -0.379388,17.08218 -3.303728,17.49593 -1.626167,0.23009 -3.488685,-0.11362 -4.138927,-0.76392 -0.743013,-0.74301 -2.89542,-0.5705 -5.793331,0.4643 -5.632779,2.01141 -7.167445,2.02631 -12.692788,0.12325 z m 13.920789,-10.43569 c 3.075111,-2.78294 2.881398,-6.12241 -0.492206,-8.48539 C 65.789744,184.56617 57.5,187.08102 57.5,192.28281 c 0,5.6474 9.334944,8.58776 13.964074,4.39845 z m 57.824226,10.92173 c -11.44557,-2.81874 -17.62418,-11.64292 -16.40737,-23.43272 1.2857,-12.45715 7.57753,-17.90788 20.68016,-17.9156 13.24497,-0.007 20.08237,5.06058 14.11372,10.46212 -1.84891,1.67325 -3.01775,1.84095 -5.70637,0.81873 -11.50062,-4.37252 -21.57504,2.91889 -18.19281,13.16714 2.40474,7.28645 9.38696,9.77759 18.33542,6.54178 3.52742,-1.27553 4.47425,-1.19485 6.19717,0.52807 5.60558,5.60558 -7.87781,12.57448 -19.01992,9.83048 z m 27.07365,-0.49104 C 155.4687,206.2187 155,197.00695 155,180.34406 l 0,-25.40593 3.34056,-1.27008 C 163.75477,151.60956 165,152.91469 165,160.64784 l 0,6.9763 7.31464,-0.82755 c 9.11045,-1.03074 18.21352,2.39209 20.19042,7.59173 1.44052,3.78883 1.66128,29.27192 0.27252,31.45535 -0.51378,0.80778 -2.61454,1.65153 -4.66837,1.875 L 184.375,208.125 183.75,193.62259 C 183.03651,177.06698 182.07252,175 175.06484,175 c -8.05344,0 -9.90671,3.35355 -10.3305,18.69332 -0.35653,12.9049 -0.38542,13.01387 -3.68489,13.89375 -1.94026,0.51742 -3.89288,0.3195 -4.6875,-0.47512 z M 91.25,187.46906 l 0,-20.03094 3.299818,-1.25458 c 2.517467,-0.95714 3.785727,-0.81485 5.349301,0.60016 1.814811,1.64239 2.720701,1.6134 7.911461,-0.25319 7.01362,-2.52209 9.25012,-1.32556 7.26782,3.88828 -0.82437,2.16825 -3.02865,4.03176 -6.33292,5.35386 -2.78763,1.11539 -5.6145,3.04836 -6.28195,4.29549 -0.66744,1.24712 -1.21353,7.3472 -1.21353,13.5557 0,12.07065 -0.96518,13.87616 -7.417824,13.87616 C 91.330033,207.5 91.25,206.87916 91.25,187.46906 Z"
         id="path3608"
         inkscape:connector-curvature="0" />
    </g>
  </g>
</svg>
