<?xml version="1.0" encoding="UTF-8" standalone="no"?>
<svg
   xmlns:dc="http://purl.org/dc/elements/1.1/"
   xmlns:cc="http://creativecommons.org/ns#"
   xmlns:rdf="http://www.w3.org/1999/02/22-rdf-syntax-ns#"
   xmlns:svg="http://www.w3.org/2000/svg"
   xmlns="http://www.w3.org/2000/svg"
   viewBox="0 0 1500 1437.5"
   height="1437.5"
   width="1500"
   version="1.1"
   id="svg3712">
  <metadata
     id="metadata3718">
    <rdf:RDF>
      <cc:Work
         rdf:about="">
        <dc:format>image/svg+xml</dc:format>
        <dc:type
           rdf:resource="http://purl.org/dc/dcmitype/StillImage" />
        <dc:title></dc:title>
      </cc:Work>
    </rdf:RDF>
  </metadata>
  <defs
     id="defs3716" />
  <a
     id="a3746">
    <path
       style="fill:#000000"
       d="M 39.581397,764.53372 6.0243265,46.567505 755.20647,11.551433 1504.3885,-23.464638 1537.9456,694.50158 1571.5027,1412.4678 822.3206,1447.4839 73.138467,1482.5 Z M 1309.9701,936.88679 c 0.365,-5.38473 0.6258,-20.9661 0.5795,-34.62532 -0.046,-13.65921 0.3667,-33.23994 0.9174,-43.51277 0.5509,-10.27281 0.5695,-22.64885 0.041,-27.50232 l -0.96,-8.82448 -17.9555,-0.2545 c -15.4894,-0.21954 -44.8803,-0.83183 -110.3346,-2.37172 -19.7593,-0.46486 -54.7818,-1.16582 -77.8277,-1.55765 -23.0458,-0.39183 -51.5278,-1.01124 -63.2934,-1.37645 -11.7655,-0.36522 -29.4694,-0.72604 -39.3421,-0.80185 -9.87263,-0.0758 -33.73238,-0.51541 -53.02166,-0.97694 -39.72603,-0.9505 -105.32041,-2.17606 -130.84531,-2.44466 -9.40372,-0.099 -21.33649,-0.3831 -26.51726,-0.63136 -5.18077,-0.24828 -20.57914,-0.64247 -34.21861,-0.87599 -13.63943,-0.23354 -41.73615,-0.83498 -62.43711,-1.33657 -20.70098,-0.50155 -56.49197,-1.19124 -79.53554,-1.53259 -23.04356,-0.34134 -51.52333,-0.91033 -63.28835,-1.26445 -25.29623,-0.76135 -64.24843,-1.17822 -69.67359,-0.74563 -8.77926,0.70004 -8.93497,0.82334 -8.66309,6.86238 0.14741,3.27502 -0.2563,9.88137 -0.89721,14.6808 -0.64087,4.79942 -1.10468,21.49764 -1.03066,37.10713 0.074,15.60948 -0.40868,31.60084 -1.07266,35.53633 -0.66396,3.9355 -0.87776,12.94029 -0.75826,18.056 l 0.4489,10.90057 8.14598,0.63113 c 8.16811,0.63285 25.85894,1.03711 102.21538,2.33594 22.57552,0.384 49.52353,1.09283 59.88443,1.5752 10.36091,0.48236 31.91755,1.01048 47.90365,1.17359 15.98611,0.16312 46.00226,0.69509 66.70256,1.18211 20.70032,0.48706 54.95471,1.2091 76.12086,1.60455 21.16615,0.39547 56.18903,1.10552 77.82861,1.57791 50.8362,1.10969 106.53254,2.25381 154.80384,3.17999 21.1666,0.40613 55.0361,1.12027 75.2656,1.58699 91.5417,2.11203 118.5764,2.43732 120.7397,1.45286 1.2776,-0.58141 2.3564,-0.31648 2.3971,0.58873 0.07,1.56993 20.3166,2.05583 38.4932,0.92404 l 8.5208,-0.53056 0.6637,-9.79039 z m -25.2526,-4.749 c -1.5786,-2.04442 -6.3059,-8.51283 -28.8298,-39.44745 -2.6692,-3.66595 -4.8771,-7.19751 -4.9063,-7.84789 -0.029,-0.6504 3.2504,-3.84816 7.288,-7.10615 6.8311,-5.51185 13.8291,-17.31203 13.5778,-22.89488 -0.2009,-4.46315 -8.0331,-9.43017 -18.443,-11.69636 -5.6838,-1.2373 -10.9497,-1.53875 -11.7115,-0.67041 -1.212,1.38172 -2.1735,17.78062 -4.3357,73.98371 l -0.5471,14.22026 -7.7008,-0.23203 c -7.7502,-0.23352 -8.0165,-0.52444 -8.4024,-0.88179 -0.386,-0.3574 0.022,-12.08053 0.905,-26.05147 0.8837,-13.9709 2.1149,-34.60785 2.736,-45.85991 1.6102,-29.17318 1.066,-28.13653 14.2127,-27.07624 46.1102,3.71891 56.1592,22.28169 37.5264,47.34958 l -8.3137,9.3783 14.7223,18.79879 c 10.699,13.66151 14.7523,19.46486 14.7889,20.27896 0.057,1.26184 -8.4086,7.97913 -10.1631,8.06426 -0.3288,0.0166 -1.4107,-1.0232 -2.4037,-2.30928 z M 1172.272,919.90287 c -4.1469,-8.13716 -8.1298,-15.11454 -8.8511,-15.50527 -0.7213,-0.39074 -12.1786,-0.74896 -25.4607,-0.79614 l -24.1492,-0.0858 -8.546,14.29678 c -8.2088,13.73256 -9.7486,14.59827 -11.2182,14.96673 -1.4697,0.36847 -4.4693,-0.70176 -6.6658,-2.37825 l -3.9937,-3.04818 9.792,-16.3805 c 5.3855,-9.00927 18.0078,-30.55148 28.0495,-47.8716 10.0416,-17.32012 18.8758,-31.52113 19.6314,-31.5578 1.4064,-0.0682 2.0792,1.13545 14.0015,25.04671 3.8005,7.62214 9.3065,18.53252 12.2356,24.2453 18.7195,36.50904 24.2736,48.40875 23.1672,49.6359 -0.6888,0.7639 -3.3224,2.02748 -5.8526,2.80791 -4.4111,1.36061 -4.9105,0.81039 -12.1399,-13.37585 z m -14.9625,-27.93546 c -0.065,-1.45381 -3.8059,-9.72463 -8.3121,-18.37962 -6.5586,-12.59694 -8.5766,-15.24463 -10.1155,-13.27161 -5.7276,7.34366 -18.5344,31.72857 -16.8399,32.06431 1.8364,0.36388 25.6105,1.93418 32.3917,2.1395 1.6471,0.0499 2.9412,-1.09879 2.8758,-2.55258 z m -160.55479,26.23745 c 0.26291,-8.21355 0.85782,-22.93616 1.32207,-32.71686 0.46423,-9.78071 1.23708,-26.547 1.71745,-37.25843 0.48037,-10.71142 1.42007,-20.09253 2.08827,-20.84693 1.6334,-1.84412 24.9251,3.5373 36.0759,8.33515 10.8172,4.6543 18.9548,13.06893 17.8237,18.4306 -0.4338,2.05634 -0.7544,4.73512 -0.7124,5.95286 0.041,1.21776 -4.3487,6.4321 -6.4397,9.64234 l -6.5161,7.42827 8.0325,7.27484 c 7.545,6.83335 8.0581,7.84459 8.4552,16.6636 0.3762,8.35793 -0.1745,10.02511 -5.016,15.18477 -7.6685,8.17243 -20.4378,12.93507 -40.336,15.04437 l -16.9729,1.7992 z m 31.80369,-0.74831 c 6.304,-1.63009 16.5482,-12.42129 16.3328,-17.20501 -0.3097,-6.8808 -6.978,-11.87842 -18.784,-14.07787 -6.2563,-1.16555 -12.4222,-1.64266 -13.702,-1.06024 -1.6825,0.76567 -2.1758,4.56154 -1.781,13.7057 0.2995,6.95574 0.1641,14.46167 -0.3028,16.67991 -0.7766,3.68945 -0.2688,4.00503 5.9577,3.70289 3.7437,-0.18158 9.2694,-0.96707 12.2793,-1.74538 z m -0.085,-46.96156 c 6.0984,-1.89981 14.5838,-10.98049 14.3851,-15.39426 -0.2574,-5.71631 -20.0616,-15.19634 -28.3375,-13.56473 -3.578,0.70538 -3.8504,1.75558 -3.7947,14.63063 0.033,7.62892 0.5407,15.00907 1.128,16.40037 1.0869,2.57427 2.1165,2.44591 16.6191,-2.07201 z m -104.85978,58.12539 c -0.99201,-1.19524 -7.46286,-12.27769 -14.37967,-24.62769 -6.91682,-12.35001 -13.2831,-23.17871 -14.14724,-24.0638 -0.86416,-0.8851 -1.63576,-3.04326 -1.71466,-4.79589 -0.26456,-5.87649 -2.93972,-3.14605 -13.21429,13.48722 -24.19325,39.16601 -25.63125,41.07562 -28.32091,37.60893 -1.34662,-1.73563 -2.50608,-4.43741 -2.57662,-6.00396 -0.0706,-1.56654 -0.78541,-3.57485 -1.58867,-4.46289 -0.80324,-0.88805 -4.72588,-9.44015 -8.71697,-19.00468 -3.99111,-9.56451 -8.44377,-19.84827 -9.89482,-22.85276 -1.45106,-3.00453 -2.6766,-6.31395 -2.72345,-7.35431 -0.0804,-1.78778 -6.27775,-12.94198 -9.24292,-16.63592 -0.75392,-0.93923 -1.51635,-2.89822 -1.69428,-4.35332 -0.17803,-1.4551 -0.90607,-5.1176 -1.61811,-8.13892 -1.4618,-6.20288 -0.86504,-6.91417 7.52972,-8.97458 5.42318,-1.33108 6.2299,-1.0038 8.43418,3.42164 1.34059,2.69144 2.86944,6.8126 3.39746,9.15814 0.52804,2.34555 1.51362,5.09212 2.1902,6.10347 0.67661,1.01137 1.30021,2.9433 1.38582,4.29319 0.0856,1.34987 1.73027,3.26606 3.65479,4.25818 1.92453,0.99211 3.99962,2.44822 4.61133,3.23577 2.31091,2.97519 9.05635,-0.1388 10.03868,-4.63432 0.53879,-2.46568 1.08985,-3.73702 1.22459,-2.82519 0.13465,0.91185 1.30198,0.0567 2.59389,-1.90008 2.05476,-3.11242 2.37258,-3.18341 2.53792,-0.56696 0.24078,3.81176 3.73607,5.9022 5.22229,3.1234 1.21974,-2.28062 6.88456,-1.12865 6.99945,1.42338 0.0874,1.94161 -7.38087,4.29124 -18.95726,5.96426 -0.70039,0.10123 -1.2061,1.67979 -1.1238,3.50796 0.0822,1.82815 -0.9445,4.35994 -2.28181,5.62621 -2.01518,1.9081 -2.75663,1.52564 -4.33068,-2.23395 -1.04457,-2.49493 -2.68555,-4.49807 -3.64663,-4.45143 -2.08439,0.10124 -2.06827,6.59392 0.0194,7.79734 0.80156,0.46205 2.56271,5.0145 3.91365,10.11653 1.35093,5.10202 3.61039,12.27829 5.02097,15.9472 2.94594,7.66244 4.22463,6.93819 11.04505,-6.25602 2.16156,-4.18159 8.05852,-14.17631 13.10433,-22.21053 8.46917,-13.48506 9.53824,-14.53547 13.91079,-13.6684 2.60512,0.51661 5.11628,1.25455 5.58036,1.63986 0.4641,0.38532 6.90816,11.13787 14.32016,23.89455 7.41201,12.75667 14.05735,23.28719 14.76742,23.40114 1.23044,0.19746 8.52494,-16.32448 24.33607,-55.12069 3.95567,-9.70617 7.63265,-17.66898 8.17107,-17.69509 0.53843,-0.0261 6.20895,1.36231 6.92276,3.37885 l 5.94383,3.42637 -4.58437,9.37073 c -2.5214,5.15389 -12.43598,26.11885 -22.03237,46.58877 -9.59641,20.46991 -17.63587,37.44603 -17.86548,37.72471 -0.22962,0.27869 -1.22914,-0.47121 -2.22111,-1.66642 z m -185.95073,-0.85627 c -21.32531,-6.74216 -34.10874,-26.76224 -33.57776,-52.58605 0.40459,-19.67668 8.68389,-36.58983 22.46955,-45.9012 4.01862,-2.71439 7.28306,-5.45698 7.25425,-6.09473 -0.0288,-0.63775 5.52925,-1.02486 12.35122,-0.86021 24.10773,0.58175 38.12655,11.79424 47.32442,37.85092 4.78386,13.55217 -0.58786,38.73755 -10.98455,51.50124 -8.59036,10.5461 -16.55704,14.89868 -29.44419,16.08676 -6.55912,0.60471 -13.48595,0.60613 -15.39294,0.003 z m 26.49721,-16.31752 c 3.59243,-2.35383 9.02168,-8.26201 12.06504,-13.12925 4.79231,-7.66438 5.56208,-10.56577 5.74793,-21.66538 0.18396,-10.98442 -0.45902,-14.17346 -4.49913,-22.31533 -4.84591,-9.76577 -13.81873,-17.33578 -22.66827,-19.12431 -6.37555,-1.28853 -20.26088,3.16502 -26.31374,8.43981 -2.88895,2.51758 -7.13175,9.08684 -9.42846,14.59835 -3.69595,8.86934 -4.01638,11.50893 -2.78834,22.96923 1.12672,10.51456 2.38784,14.36318 6.70965,20.47605 9.98009,14.11611 28.00026,18.38353 41.17532,9.75083 z m -104.41625,3.32165 c -4.19083,-5.89551 -11.75106,-16.46507 -16.80048,-23.48791 -5.04948,-7.02285 -9.2133,-13.60717 -9.25301,-14.63183 -0.0393,-1.0247 2.59462,-3.9445 5.85406,-6.48854 7.47806,-5.83667 13.62411,-16.11572 13.34485,-22.31879 -0.35987,-7.9936 -15.70089,-16.22388 -26.34581,-14.13418 -4.62546,0.908 -4.45499,-0.49696 -6.13764,50.59067 -0.41847,12.70593 -1.07479,26.54991 -1.45845,30.76441 l -0.69756,7.6627 -7.91738,-0.14781 c -14.74773,-0.27532 -8.74398,3.14008 -6.45969,-37.47705 2.81094,-49.98186 3.66297,-62.18893 4.39918,-63.02822 0.95574,-1.08952 25.20125,1.20425 34.49791,3.26374 28.18378,6.24349 22.29084,27.85779 12.30176,47.11884 l -5.92137,6.094 15.64958,19.64854 c 12.12461,15.22284 15.35923,19.88406 15.00436,20.17192 -3.82027,3.09874 -9.92176,6.99638 -11.03705,7.05051 -0.77196,0.0374 -4.83244,-4.75551 -9.02326,-10.651 z m -127.2908,9.99913 c -2.85576,-0.79944 -7.17362,-0.97877 -9.59523,-0.39851 -2.4216,0.58025 -5.11953,0.43963 -5.99541,-0.31251 -0.87589,-0.75213 -5.32384,-2.60649 -9.88436,-4.12081 -14.88989,-4.94412 -25.7152,-18.88341 -27.59104,-35.52784 -1.30574,-11.58575 4.93795,-29.97587 13.09114,-38.55868 11.40729,-12.00836 41.03441,-23.86277 62.21734,-24.89444 7.8819,-0.38387 8.1063,-0.25016 8.34138,4.97213 0.27804,6.17574 0.76697,5.92764 -18.88634,9.58369 -25.36653,4.71886 -41.68689,15.76368 -47.77452,32.33152 -3.52396,9.59065 -3.34492,16.60175 0.60932,23.86335 8.07248,14.82419 19.19882,19.90735 43.41706,19.83548 24.45523,-0.0726 25.06139,1.70324 24.77125,6.99017 l -0.2737,5.7186 -13.62729,0.98568 c -7.49501,0.54211 -15.96383,0.3316 -18.8196,-0.46783 z m 192.05596,-102.55 c -0.66341,-1.57121 -0.84088,-3.27315 -0.39441,-3.78212 1.29403,-1.4752 6.26427,3.09903 5.30867,4.88575 -1.35258,2.52898 -3.59297,2.02585 -4.91426,-1.10363 z m 564.97319,-69.13812 c 16.9815,-8.6089 23.206,-21.51155 24.8381,-51.48698 1.7087,-31.37969 1.3961,-86.32159 -0.5383,-94.6391 -3.9313,-16.90178 -21.8488,-31.51618 -40.4837,-33.02035 -31.7742,-2.56473 -52.2083,9.21475 -58.0703,33.47533 -2.8141,11.64697 -5.0945,99.1809 -2.9449,113.04775 3.3948,21.90025 19.8527,35.49851 46.7066,38.59128 7.6948,0.88623 22.8064,-2.07137 30.4925,-5.96793 z m -32.1187,-26.98908 c -0.1325,-1.21335 -0.4828,-3.79114 -0.7774,-5.72848 -0.2947,-1.93734 -0.3195,-19.90008 -0.053,-39.91721 0.9916,-74.89422 1.1295,-76.34604 7.2815,-76.64456 6.2784,-0.30465 7.7451,4.0155 7.2771,21.43477 -0.2421,9.0085 -0.723,33.55833 -1.0688,54.55521 -0.6999,42.51072 -1.6188,47.98234 -8.1117,48.2974 -2.3678,0.11484 -4.414,-0.78383 -4.547,-1.99713 z m -15.6604,-56.82812 c -2.311,-0.75468 -3.2675,-5.70014 -1.1137,-5.75895 0.704,-0.0196 2.4586,0.66081 3.8987,1.51116 3.0329,1.79064 0.6802,5.37928 -2.785,4.24779 z m -73.2516,82.43303 c 2.7366,-2.44549 14.2521,3.70817 4.1333,-103.54854 l 0.3473,-35.50115 13.878,-1.18592 13.878,-1.1859 -0.031,-16.34101 c -0.018,-8.98756 -0.4918,-16.87973 -1.0541,-17.53818 -0.5621,-0.65843 -21.028,-1.49015 -45.4797,-1.84822 -24.4517,-0.35807 -45.7461,-0.98925 -47.321,-1.40261 -3.2457,-0.85187 -4.1785,4.63057 -4.1308,24.28193 l 0.028,11.53103 7.6938,0.0769 c 4.2316,0.0423 10.3019,0.40102 13.4897,0.79726 5.7222,0.71123 5.7867,0.81517 5.0763,8.17457 -0.6263,6.48792 -1.3598,36.91786 -2.7055,112.22916 -0.192,10.74331 0.1532,20.11081 0.7671,20.81666 0.6139,0.70583 9.1628,1.57713 18.9975,1.93615 9.8348,0.35905 18.3153,0.74286 18.8455,0.85289 0.5303,0.11003 2.145,-0.85517 3.5884,-2.14499 z M 1043.4842,717.3049 c 0.1672,-17.03505 0.5864,-40.96647 0.9316,-53.18093 1.1903,-42.13035 1.6189,-90.66185 0.8075,-91.42899 -1.6582,-1.56781 -35.1784,-1.38767 -36.0241,0.19359 -0.4797,0.89698 -1.0798,16.7651 -1.3335,35.26249 -0.4712,34.36173 -1.3528,41.46715 -3.9959,32.20449 -0.8225,-2.88218 -2.8084,-9.967 -4.41322,-15.74404 -3.06441,-11.03129 -13.54074,-47.53601 -14.64876,-51.04355 -0.60593,-1.91818 -3.71519,-2.30494 -28.697,-3.56961 l -9.84896,-0.4986 0.25564,5.7693 c 0.14152,3.17307 -0.0541,16.56268 -0.43247,29.75458 -1.13602,39.60021 -0.0736,99.42772 -2.40764,122.71152 l -0.0668,20.58064 17.5983,0.4031 c 6.87952,0.15758 17.91299,-0.18534 18.73824,-1.7283 0.62697,-1.17227 1.27419,-10.23076 1.43829,-20.12998 0.75169,-45.3938 0.96901,-50.85412 2.02553,-50.90539 0.61889,-0.0301 2.22987,4.88177 3.57999,10.91512 1.99084,8.89673 7.72795,31.2496 14.05525,54.76218 2.148,7.98187 3.8453,8.65095 22.079,8.70393 9.67,0.0281 18.1381,-0.42364 18.818,-1.0038 0.6799,-0.5802 1.373,-14.99265 1.5402,-32.02769 z m -117.04594,12.86847 c 0.20959,-9.27964 0.19585,-17.04722 -0.0306,-17.26127 -0.22636,-0.21403 -7.12744,-0.59845 -15.33571,-0.85425 -8.20826,-0.25583 -15.28188,-1.00773 -15.71914,-1.67086 -0.43729,-0.66318 -0.68353,-9.39257 -0.54722,-19.39868 l 0.24785,-18.19291 13.47308,-0.0186 c 15.4332,-0.0213 14.23167,1.59577 14.89399,-20.04428 0.44917,-14.67634 0.91602,-14.27845 -16.7627,-14.28713 -11.05175,-0.006 -11.21021,-0.31093 -10.32707,-19.91655 l 0.59593,-13.22951 13.83455,-0.0601 c 18.57874,-0.0807 13.8582,-0.16519 14.84475,-4.54462 0.55557,-2.46651 0.82731,-10.24884 0.60382,-17.29409 -0.48518,-15.29492 2.71345,-13.96735 -35.36205,-14.67673 -41.16941,-0.767 -38.3011,-1.32677 -38.96521,7.60428 -0.30952,4.16225 -0.93901,34.73147 -1.39886,67.93158 -0.45985,33.20013 -1.12388,69.16018 -1.47564,79.91126 -0.38178,11.66974 0.0143,20.17515 0.98283,21.10506 1.56291,1.50058 62.70272,-5.15606 70.10798,2.28353 l 5.95821,-0.51409 0.38108,-16.87213 z m -118.85073,7.98345 c 0.73971,-5.83329 1.34436,-32.0407 2.57155,-111.45672 0.166,-10.74206 0.80329,-20.44801 1.4162,-21.56882 0.72839,-1.33193 5.22407,-1.93233 12.97895,-1.73323 l 11.86458,0.3046 0.62109,-10.45911 c 0.36947,-6.22176 0.88896,-13.38414 1.21637,-16.9592 0.32738,-3.57507 -0.16944,-6.94087 -1.10395,-7.47962 -1.37781,-0.79426 -36.50629,-2.71754 -89.27252,-2.48095 l -7.6948,-0.0999 -0.51133,15.99274 c -0.28122,8.79599 -0.14498,16.93556 0.30279,18.08795 0.49792,1.28155 5.32576,2.08077 12.43216,2.05807 l 11.61813,-0.0373 0.79271,28.34897 c 0.45108,16.13186 0.3461,33.95941 -0.19984,40.81663 -0.5459,6.85721 -0.15212,25.41081 -0.82129,42.70318 l 0.17129,30.23552 7.45301,0.0947 c 4.09915,0.052 7.81164,0.43373 8.24998,0.84816 0.43834,0.41444 6.7075,0.46664 13.9315,0.11611 l 13.13454,-0.63732 0.84891,-6.69451 z m -110.1206,4.7271 c 2.90436,-1.21181 4.8272,-2.891 4.27298,-3.73157 -0.55424,-0.84056 1.41174,-1.35418 4.36885,-1.14138 8.51025,0.61245 17.23701,-10.01319 19.5659,-23.82329 2.20407,-13.06994 0.81014,-39.94956 -2.46234,-47.48199 -3.92037,-9.02375 -13.52621,-19.05645 -27.15799,-28.36486 -7.05681,-4.81873 -15.83471,-11.4328 -19.50644,-14.69789 -6.10353,-5.4276 -6.7125,-6.7505 -7.10329,-15.43056 -0.70279,-15.61096 3.94973,-20.31785 13.99622,-14.15985 4.10766,2.51779 4.22985,2.9501 1.96123,6.93926 -1.33063,2.33982 -2.28007,7.34701 -2.1099,11.12707 l 0.30941,6.87284 19.98924,0.14187 c 10.99404,0.078 20.37296,-0.29572 20.84201,-0.83032 0.46902,-0.53472 0.49668,-7.9002 0.0615,-16.36776 -0.90571,-17.61871 -3.61269,-24.04311 -12.95774,-30.75051 -9.83761,-7.06098 -23.56709,-10.41273 -39.45016,-9.63087 -23.05773,1.13489 -34.38269,6.99152 -41.16648,21.28856 -3.05003,6.428 -3.70842,11.22431 -3.71848,27.08834 -0.0109,18.21531 0.26094,19.79424 4.94599,28.66142 4.094,7.74842 8.34111,11.91025 24.36616,23.87675 25.65632,19.15851 26.54155,20.30473 27.2138,35.23723 0.59565,13.23041 -1.54217,17.70444 -8.6239,18.04808 -6.03639,0.2929 -5.83646,0.87421 -7.28888,-21.01404 l 0.15371,-15.56514 -10.92999,-0.46849 c -23.89349,-1.02414 -29.03054,-0.90526 -29.83658,0.60181 -0.46086,0.8617 -0.50008,9.79906 -0.0873,19.86083 0.62274,15.17466 1.4157,19.50421 4.65036,25.39053 7.84042,14.26775 25.39155,22.07049 47.45768,21.09834 7.13003,-0.31405 15.34,-1.56263 18.24437,-2.77441 z M 606.8247,704.43034 c 0.78637,-61.31823 1.7829,-113.52479 2.4189,-126.72296 0.39351,-8.16566 -0.0391,-13.01557 -1.22169,-13.6973 -1.00702,-0.5805 -13.21178,-1.16653 -22.37289,-1.20499 l -20.54194,-0.14957 -0.61674,6.06178 c -0.7546,7.41679 -0.91711,18.16005 -1.55594,66.43064 -0.20677,15.62312 -0.64476,38.79787 -0.97331,51.49945 -0.32856,12.70157 -0.40703,26.73327 -0.82959,38.54078 l -0.2322,15.447 9.83726,0.16293 c 2.54716,0.0422 15.63995,0.0323 22.73218,-0.12732 l 12.89492,-0.29026 0.46104,-35.95022 z m -60.79332,32.52291 c 0.49995,-1.56778 1.28097,-6.2322 0.2496,-17.49693 l -0.65937,-14.64638 -12.18611,-0.46752 c -4.44486,-0.17052 -12.55774,-0.81885 -13.01194,-1.24828 -0.45421,-0.42944 -0.57052,-13.83546 -0.25871,-29.79116 0.31191,-15.95569 0.73274,-41.39353 0.93519,-56.52854 0.20243,-15.13499 0.52237,-33.60909 0.71097,-41.05354 l 0.34289,-13.53537 -12.43708,-0.57178 c -6.8404,-0.31448 -16.67901,-0.82288 -22.13447,-1.14263 l -9.69737,-0.57077 -0.30938,11.31484 c -0.25935,9.48492 -0.78758,37.74183 -2.10377,112.53214 -0.83993,47.72844 -0.63443,54.05887 1.77908,54.79917 1.33052,0.4081 15.11234,0.83545 30.62628,0.94961 15.51392,0.11414 30.24072,0.23015 32.72618,0.25764 2.72561,0.0303 4.87979,-1.08122 5.42804,-2.8005 z M 1315.6783,513.17672 c 0.5021,-1.73389 1.469,-41.86016 2.1607,-89.67817 0.2425,-16.75895 0.5362,-31.10738 0.6527,-31.8854 0.2608,-1.74111 -8.3073,-2.787 -19.5425,-2.38539 l -8.4325,0.30143 0.2871,5.93056 c 0.4822,10.01695 -0.7954,44.14778 -1.6536,44.18789 -0.7518,0.0351 -10.2825,-29.72891 -13.3298,-41.62843 -2.3941,-9.34887 -3.3378,-10.14985 -11.5096,-9.76792 -4.0005,0.18699 -9.7923,0.11354 -12.8706,-0.16237 l -5.5971,-0.50233 -0.5422,21.12395 c -1.5558,60.61155 -1.8322,78.70888 -1.3927,91.24012 l 0.482,13.74249 12.5194,0.12253 c 6.8857,0.0674 12.6522,0.0364 12.8146,-0.0688 0.4789,-0.31049 1.4941,-23.94535 1.6854,-39.2377 0.097,-7.78444 0.5516,-13.81769 1.0093,-13.40721 0.4577,0.41048 1.6444,4.18637 2.6371,8.39086 0.9927,4.20449 3.5832,14.03721 5.7569,21.85049 2.1736,7.81329 4.4642,16.15294 5.0904,18.53256 1.1171,4.24589 1.2778,4.33361 8.6236,4.70486 13.9815,0.70663 20.6705,0.26267 21.1533,-1.40399 z m -63.1167,-119.39128 c 0.3987,-0.71811 1.2631,-1.00684 1.9209,-0.6416 1.7819,0.98942 1.494,1.75377 -0.6993,1.85628 -1.0706,0.0501 -1.6204,-0.49656 -1.2216,-1.21468 z m -21.4668,105.32257 0.3968,-10.21959 -4.7895,-0.46072 c -2.6342,-0.25339 -8.0107,-0.65773 -11.9478,-0.89852 l -7.1584,-0.4378 0.1457,-12.75043 c 0.08,-7.01273 0.3677,-13.02684 0.6391,-13.36468 0.2713,-0.33783 4.6498,-0.63503 9.7298,-0.66039 l 9.2365,-0.0461 0.4776,-4.19647 c 0.2627,-2.30806 0.4734,-7.57496 0.4683,-11.70422 l -0.01,-7.50775 -9.3807,0.0645 c -5.1595,0.0355 -9.8078,-0.32436 -10.3297,-0.79963 -0.5218,-0.47528 -0.5536,-6.07391 -0.07,-12.44118 l 0.8793,-11.57704 10.3274,0.31001 10.3274,0.31003 0.4356,-9.31384 c 0.6726,-14.38243 0.3005,-15.30567 -6.4253,-15.9441 -3.1386,-0.29792 -15.2457,-0.30014 -26.9046,-0.005 l -21.198,0.53663 -0.2681,25.66551 c -0.4392,42.04111 -1.3151,84.08368 -1.8979,91.09905 -0.4197,5.05161 -0.1393,6.68885 1.2139,7.08872 0.9679,0.28597 13.5932,0.69321 28.0564,0.90498 23.2142,0.33989 26.3759,0.16128 26.9725,-1.52362 0.3717,-1.04975 0.8544,-6.50744 1.0726,-12.12823 z m -72.9502,-4.84917 c 0.031,-15.68083 0.5134,-40.24476 1.358,-69.19915 0.2613,-8.95948 0.5812,-21.4546 0.711,-27.76692 l 0.2359,-11.47697 -9.8133,0.19147 c -5.3973,0.10538 -15.1545,0.37149 -21.6826,0.59142 l -11.8693,0.39987 -1.0709,8.18393 c -4.0377,30.85641 -6.5541,45.16716 -7.5426,42.89893 -0.441,-1.01177 -1.8949,-11.835 -3.2309,-24.0516 -1.336,-12.21661 -2.8187,-23.77636 -3.2949,-25.68831 l -0.8659,-3.47627 -17.7027,-0.0537 c -9.7365,-0.0295 -19.0981,0.21163 -20.8036,0.53599 l -3.1008,0.58965 -0.8353,39.45702 c -0.4594,21.70137 -1.0491,49.25887 -1.3104,61.23891 -0.3612,16.55628 -0.1165,21.98105 1.0198,22.612 2.2252,1.23554 25.3704,1.55796 26.4536,0.36852 0.5137,-0.5641 1.1509,-15.55168 1.416,-33.30572 0.2651,-17.75405 0.8729,-33.51085 1.3509,-35.01511 0.9135,-2.87559 0.981,-2.41672 6.4083,43.5471 1.5618,13.22716 3.354,24.50779 3.9827,25.06809 0.9317,0.83032 13.1187,1.132 18.7781,0.46482 0.7621,-0.0898 1.8826,-3.42448 2.4901,-7.41031 0.6075,-3.98584 2.8774,-18.87367 5.0441,-33.08408 2.1668,-14.21041 4.2706,-28.38659 4.675,-31.50262 1.2287,-9.46688 1.182,46.60615 -0.056,67.17788 l -0.3158,5.24746 6.5536,0.41874 c 10.9481,0.69953 20.2423,0.42931 21.6518,-0.62954 0.7799,-0.58589 1.3481,-7.37916 1.366,-16.33158 z m -378.16161,10.87461 c 0.28779,-3.20664 0.38249,-8.84221 0.21044,-12.52348 l -0.31284,-6.69323 -5.46278,0.25532 c -3.00454,0.14043 -7.26785,-0.0188 -9.47403,-0.35375 l -4.01123,-0.60906 0.14926,-13.28829 c 0.0821,-7.30855 0.42963,-25.37443 0.7723,-40.14643 0.66945,-28.85862 -0.0554,-43.97157 -2.17134,-45.27246 -0.72765,-0.44737 -2.25581,0.11443 -3.39602,1.2467 -1.57188,1.56207 -3.4528,1.91865 -7.78065,1.47504 -3.13922,-0.32178 -5.72589,-0.97502 -5.74818,-1.45164 -0.0574,-1.22814 -7.86239,-3.11688 -10.36043,-2.50713 -2.45144,0.5984 -2.82799,4.45574 -3.216,32.9449 -0.1454,10.67469 -0.59015,32.65692 -0.98832,48.84942 -0.39818,16.1925 -0.6417,32.53419 -0.54115,36.31487 l 0.18281,6.87395 16.27392,0.13223 c 8.95065,0.0727 18.25019,0.2473 20.66565,0.38796 2.41544,0.14066 6.70778,0.24214 9.53853,0.22553 l 5.14679,-0.0302 z M 717.21571,500.612 c -0.45895,-7.05391 -5.09721,-43.18835 -7.48892,-58.34252 -0.32347,-2.04963 -1.37989,-11.01007 -2.34757,-19.91211 -0.96768,-8.90202 -1.84144,-16.46323 -1.94167,-16.80267 -0.1002,-0.33944 -0.85113,-5.49985 -1.66863,-11.46759 l -1.4864,-10.85043 -8.94187,0.44156 c -4.91804,0.24288 -15.53186,0.36689 -23.58626,0.27563 l -14.64439,-0.16599 -0.50631,3.01083 c -0.55665,3.31024 -3.9175,27.93691 -4.79304,35.12098 -0.12655,1.03829 -1.3951,8.69963 -2.81903,17.02519 -1.42392,8.32556 -3.25391,19.67336 -4.06668,25.21736 -0.81275,5.54399 -2.09063,14.05043 -2.83971,18.9032 -2.84228,18.41295 -3.57673,24.50745 -3.0115,24.98973 0.32099,0.27388 8.0476,0.5562 17.17024,0.62735 l 16.58664,0.1294 -0.1635,-3.49787 c -0.0899,-1.92381 0.35823,-6.79405 0.9959,-10.82271 l 1.15937,-7.32487 5.18484,-0.24234 5.18484,-0.24232 1.3407,10.80777 c 0.7374,5.94427 1.61377,11.05644 1.94749,11.36036 0.6297,0.57346 27.87518,1.17515 30.05797,0.6638 0.70177,-0.16439 0.99516,-4.01927 0.67749,-8.90171 z m -44.33938,-37.86962 c -0.44815,-1.02239 -0.10074,-5.96588 0.77198,-10.98552 0.87275,-5.01966 2.05275,-12.52709 2.62222,-16.68321 2.93201,-21.39833 3.59512,-20.45706 5.76089,8.17745 l 1.57976,20.88652 -4.96002,0.23183 c -3.2802,0.15331 -5.23596,-0.39773 -5.77483,-1.62707 z m -21.72436,-28.88603 c -1.05583,-1.15767 -1.14222,-1.96884 -0.27305,-2.56383 0.6993,-0.47869 1.30103,-0.23745 1.33718,0.53611 0.0412,0.88151 1.07738,1.03256 2.77612,0.40469 2.50662,-0.92647 2.56436,-0.84143 0.76794,1.13114 -2.36604,2.59806 -2.65877,2.6293 -4.60819,0.49189 z m 2.65735,-9.51397 c -0.43245,-0.63171 -0.26941,-1.50237 0.36231,-1.9348 0.6317,-0.43244 1.50237,-0.26941 1.93479,0.36232 0.43244,0.63171 0.26941,1.50237 -0.36231,1.93479 -0.63171,0.43244 -1.50237,0.26941 -1.93479,-0.36231 z m 27.42218,-27.66723 c -0.45654,-0.6669 -0.23502,-1.24037 0.49225,-1.27436 0.72729,-0.034 1.3486,0.50008 1.38071,1.18683 0.0321,0.68674 -0.18943,1.26022 -0.49227,1.27437 -0.30285,0.0142 -0.92416,-0.51992 -1.38069,-1.18684 z m -6.41827,-3.4541 c -0.45654,-0.66692 -0.23502,-1.24038 0.49226,-1.27438 0.72728,-0.0339 1.3486,0.50009 1.3807,1.18683 0.0321,0.68676 -0.18943,1.26022 -0.49226,1.27438 -0.30285,0.0142 -0.92416,-0.51992 -1.3807,-1.18683 z m -43.54456,112.15532 c 0.0869,-1.03645 0.31437,-6.46809 0.50552,-12.07036 l 0.34752,-10.18591 -12.24156,-0.52045 c -11.18973,-0.47573 -12.22689,-0.73617 -12.0709,-3.03116 0.0938,-1.38088 0.31658,-7.42326 0.49491,-13.42748 l 0.32428,-10.91678 10.13003,-0.20842 10.13003,-0.20842 -0.38036,-10.86885 c -0.4315,-12.33029 -0.44453,-12.3456 -10.7279,-12.60912 -3.44538,-0.0883 -6.97848,-0.38005 -7.85133,-0.64833 -1.95885,-0.60211 -2.20505,-4.83177 -0.88793,-15.25415 l 1.01417,-8.02501 10.33228,0.35408 10.33228,0.35409 0.32379,-12.18429 c 0.17809,-6.70137 0.0649,-12.42006 -0.2515,-12.70821 -0.77663,-0.70728 -35.83239,-1.74387 -45.98244,-1.3597 l -8.11951,0.30731 -0.30352,23.79012 c -0.16696,13.08456 -0.46489,28.02101 -0.6621,33.19211 -0.19721,5.1711 -0.46969,18.41701 -0.60551,29.43536 -0.13582,11.01836 -0.43572,24.07182 -0.66644,29.0077 l -0.41949,8.97433 8.00593,0.34561 c 39.85505,1.72048 48.98074,1.43611 49.22975,-1.53403 z m -73.57258,-0.62823 c 0.63821,-0.89014 1.26988,-6.97314 1.40368,-13.51777 0.7921,-38.74174 0.97647,-35.55619 -2.36745,-40.90484 -1.69579,-2.71239 -4.9976,-5.85 -7.33738,-6.97244 -4.52308,-2.16982 -4.64389,-3.00128 -0.5553,-3.82219 6.95106,-1.39565 9.38229,-5.09104 11.04889,-16.79387 1.29878,-9.12011 0.44019,-14.09468 -2.44477,-14.16448 -1.73773,-0.0421 -1.72083,-0.15103 0.11209,-0.72269 3.26129,-1.01711 2.49446,-2.76837 -1.04967,-2.3972 -1.71178,0.17921 -3.09301,0.74736 -3.06941,1.26244 0.0236,0.51508 -0.5878,0.966 -1.35864,1.00202 -0.96833,0.0452 -0.94812,-0.53587 0.0654,-1.8801 1.17029,-1.55223 1.1349,-2.30961 -0.17508,-3.74591 -1.31298,-1.4396 -1.33573,-2.20645 -0.11362,-3.82746 1.33482,-1.77046 1.13161,-1.90765 -1.60484,-1.08327 -4.69058,1.41306 -5.72764,-2.26053 -1.70987,-6.05687 3.54176,-3.34659 2.83021,-6.0423 -1.25812,-4.76651 -1.82124,0.56835 -2.39836,0.36128 -1.83266,-0.6575 0.45412,-0.81788 0.23064,-1.45925 -0.49665,-1.42527 -0.72728,0.034 -1.29606,0.6237 -1.26397,1.31044 0.0321,0.68676 -0.56905,1.27797 -1.3359,1.31381 -0.76685,0.0359 -1.16143,-1.0322 -0.87687,-2.37341 0.35485,-1.67248 -0.1253,-2.41358 -1.52852,-2.35899 -1.12526,0.0436 -4.70163,-0.36749 -7.94752,-0.91386 -3.24587,-0.5464 -14.51794,-0.75596 -25.04905,-0.46574 l -19.14741,0.52771 -0.32508,23.79113 c -0.17879,13.08512 -0.44979,34.21456 -0.60217,46.95431 -0.15242,12.73976 -0.63811,29.20361 -1.07928,36.58635 -0.4412,7.38274 -0.46702,14.18773 -0.0574,15.12223 0.76466,1.7445 8.2929,2.22062 24.75391,1.56557 l 8.11878,-0.32301 0.14521,-14.39748 c 0.30402,-30.14268 0.77074,-41.33105 1.72602,-41.3757 0.54342,-0.0254 2.40197,0.41707 4.13011,0.98329 4.37874,1.43463 5.23607,5.81322 4.55079,23.24198 -0.32038,8.1478 -0.70167,18.87765 -0.84734,23.84408 l -0.26485,9.02987 9.07639,0.008 c 4.99201,0.004 11.40082,0.011 14.2418,0.0149 2.92222,0.004 5.66933,-0.69563 6.3258,-1.61123 z m -37.13386,-88.19485 c 0.13057,-6.96837 0.49106,-13.12661 0.80109,-13.68496 0.94802,-1.70736 5.66971,-0.0604 7.64436,2.66664 1.48327,2.04831 1.69728,4.35239 1.04607,11.26158 -0.93133,9.8809 -2.10313,12.0701 -6.57252,12.279 l -3.1564,0.14752 z m 28.31752,-6.40742 c -5.40932,-3.3849 -5.44284,-3.4483 -3.41035,-6.44869 2.39541,-3.53617 2.56211,-3.48533 3.61753,1.10295 1.07532,4.67482 1.75216,5.47763 4.50945,5.34876 2.8389,-0.13269 4.44954,1.79226 2.29122,2.73835 -0.84967,0.37244 -4.0032,-0.86117 -7.00785,-2.74137 z m 7.81529,-7.88463 c -0.30995,-0.80282 -1.24159,-1.651 -2.07028,-1.88484 -0.92666,-0.26151 -1.17904,0.32237 -0.65554,1.51663 0.97703,2.22895 3.57999,2.58057 2.72582,0.36821 z m 191.92193,-15.74847 c -0.4343,-0.39552 -1.51333,-0.38955 -2.39783,0.0133 -0.97744,0.44515 -0.66774,0.7272 0.78966,0.71911 1.31879,-0.008 2.04248,-0.33688 1.60818,-0.73239 z"
       id="path3724" />
  </a>
  <text
     id="text3726"
     y="242.29105"
     x="831.26245"
     style="font-style:normal;font-weight:normal;font-size:40px;line-height:125%;font-family:sans-serif;letter-spacing:0px;word-spacing:0px;fill:#ffffff;fill-opacity:1;stroke:none;stroke-width:1px;stroke-linecap:butt;stroke-linejoin:miter;stroke-opacity:1"
     xml:space="preserve"><tspan
       y="242.29105"
       x="831.26245"
       id="tspan3728" /></text>
  <flowRoot
     style="fill:black;stroke:none;stroke-opacity:1;stroke-width:1px;stroke-linejoin:miter;stroke-linecap:butt;fill-opacity:1;font-family:sans-serif;font-style:normal;font-weight:normal;font-size:40px;line-height:125%;letter-spacing:0px;word-spacing:0px"
     id="flowRoot3730"
     xml:space="preserve"><flowRegion
       id="flowRegion3732"><rect
         y="240.13751"
         x="788.19183"
         height="66.759422"
         width="43.070595"
         id="rect3734" /></flowRegion><flowPara
       id="flowPara3736"></flowPara></flowRoot>  <flowRoot
     transform="translate(1.5394118,193.66414)"
     style="font-style:normal;font-variant:normal;font-weight:normal;font-stretch:condensed;font-size:158.75px;line-height:125%;font-family:Impact;-inkscape-font-specification:'Impact, Condensed';text-align:start;letter-spacing:0px;word-spacing:0px;writing-mode:lr-tb;text-anchor:start;fill:#ffffff;fill-opacity:1;stroke:none;stroke-width:1px;stroke-linecap:butt;stroke-linejoin:miter;stroke-opacity:1"
     id="flowRoot3738"
     xml:space="preserve"><flowRegion
       id="flowRegion3740"><rect
         style="font-style:normal;font-variant:normal;font-weight:normal;font-stretch:condensed;font-size:158.75px;line-height:125%;font-family:Impact;-inkscape-font-specification:'Impact, Condensed';text-align:start;writing-mode:lr-tb;text-anchor:start;fill:#ffffff"
         y="151.84279"
         x="833.41595"
         height="187.35709"
         width="256.27002"
         id="rect3742" /></flowRegion><flowPara
       style="font-style:normal;font-variant:normal;font-weight:normal;font-stretch:condensed;font-size:158.75px;line-height:125%;font-family:Impact;-inkscape-font-specification:'Impact, Condensed';text-align:start;writing-mode:lr-tb;text-anchor:start"
       id="flowPara3744">WO</flowPara></flowRoot></svg>
